<?xml version="1.0" encoding="utf-8"?>
<!-- Generator: Adobe Illustrator 19.1.0, SVG Export Plug-In . SVG Version: 6.00 Build 0)  -->
<svg version="1.1" id="Layer_1" xmlns="http://www.w3.org/2000/svg" xmlns:xlink="http://www.w3.org/1999/xlink" x="0px" y="0px"
	 viewBox="181 -181 512 512" style="enable-background:new 181 -181 512 512;" xml:space="preserve">
<style type="text/css">
	.st0{fill:#FFFFFF;}
</style>
<g>
	<g>
		<g>
			<path class="st0" d="M598.6,43.8c-5.7-1.6-11.6,1.7-13.2,7.3c-1.6,5.7,1.7,11.6,7.3,13.2c48.7,13.9,78.9,34.1,78.9,52.7
				c0,13.6-16.5,28.5-45.4,41c-31.7,13.7-76.8,23.7-126.8,28.2l-43.7-0.6c-0.1,0-0.1,0-0.1,0c-5.8,0-10.6,4.7-10.7,10.5
				c-0.1,5.9,4.6,10.7,10.5,10.8l44.2,0.6c0,0,0.1,0,0.1,0c0.3,0,0.6,0,0.9,0c52.5-4.7,100-15.3,133.9-29.9
				c48.2-20.8,58.3-44.4,58.3-60.6C693,87.2,659.5,61.2,598.6,43.8z"/>
			<path class="st0" d="M284.3,31.6c-5.9,0-10.7,4.8-10.7,10.7S278.4,53,284.3,53h43.9V97h-43.9c-5.9,0-10.7,4.8-10.7,10.7
				c0,5.9,4.8,10.7,10.7,10.7h54.5c5.9,0,10.7-4.8,10.7-10.7V-23.1c0-5.9-4.8-10.7-10.7-10.7h-54.5c-5.9,0-10.7,4.8-10.7,10.7
				s4.8,10.7,10.7,10.7h43.9v44.1L284.3,31.6L284.3,31.6z"/>
			<path class="st0" d="M382.5,118.4h65.4c5.9,0,10.7-4.8,10.7-10.7V42.3c0-5.9-4.8-10.7-10.7-10.7h-54.8v-44.1H437
				c5.9,0,10.7-4.8,10.7-10.7s-4.8-10.7-10.7-10.7h-54.5c-5.9,0-10.7,4.8-10.7,10.7v130.8C371.8,113.6,376.6,118.4,382.5,118.4z
				 M393.1,53h44.1V97h-44.1V53z"/>
			<path class="st0" d="M491.5,118.4H557c5.9,0,10.7-4.8,10.7-10.7V-23.1c0-5.9-4.8-10.7-10.7-10.7h-65.4c-5.9,0-10.7,4.8-10.7,10.7
				v130.8C480.9,113.6,485.6,118.4,491.5,118.4z M502.2-12.5h44.1V97h-44.1L502.2-12.5L502.2-12.5z"/>
			<path class="st0" d="M376,144.9c-3.8-4.5-10.5-5.1-15-1.3c-4.5,3.8-5.1,10.5-1.3,15l23.9,28.2c-50.3-3.8-95.9-13.1-129.5-26.3
				c-32.9-13-51.8-28.9-51.8-43.6c0-17.1,25.3-35.5,67.7-49.3c5.6-1.8,8.7-7.8,6.9-13.4c-1.8-5.6-7.8-8.7-13.4-6.9
				c-24.7,8-44.2,17.5-58.1,28.3C189.2,88.2,181,102.1,181,117c0,24.6,22.6,46.6,65.3,63.4c34.7,13.7,81.3,23.3,132.5,27.5
				l-21.3,23.6c-3.9,4.4-3.6,11.1,0.8,15.1c2,1.8,4.6,2.7,7.1,2.7c2.9,0,5.8-1.2,7.9-3.5l38.8-43c1.8-2,2.7-4.5,2.7-7.1v-0.8
				c0-2.5-0.9-5-2.5-6.9L376,144.9z"/>
			<path class="st0" d="M587.8-34.3h43.6c5.9,0,10.7-4.8,10.7-10.7v-43.6c0-5.9-4.8-10.7-10.7-10.7h-43.6c-5.9,0-10.7,4.8-10.7,10.7
				V-45C577.2-39.1,582-34.3,587.8-34.3z M598.5-78h22.3v22.3h-22.3V-78z"/>
		</g>
	</g>
</g>
</svg>
