<?xml version="1.0" encoding="utf-8"?>
<!-- Generator: Adobe Illustrator 19.1.0, SVG Export Plug-In . SVG Version: 6.00 Build 0)  -->
<svg version="1.1" id="Layer_1" xmlns="http://www.w3.org/2000/svg" xmlns:xlink="http://www.w3.org/1999/xlink" x="0px" y="0px"
	 viewBox="181 -181 512 512" style="enable-background:new 181 -181 512 512;" xml:space="preserve">
<style type="text/css">
	.st0{fill:#FFFFFF;}
</style>
<g>
	<g>
		<path class="st0" d="M500.7-58.1H234.6c-5,0-9,4-9,9s4,9,9,9h266.1c5,0,9-4,9-9C509.7-54.1,505.7-58.1,500.7-58.1z"/>
	</g>
</g>
<g>
	<g>
		<path class="st0" d="M367.7-20.5H234.6c-5,0-9,4-9,9s4,9,9,9h133.1c5,0,9-4,9-9S372.6-20.5,367.7-20.5z"/>
	</g>
</g>
<g>
	<g>
		<path class="st0" d="M253.8,17.2h-19.2c-5,0-9,4-9,9s4,9,9,9h19.2c5,0,9-4,9-9S258.7,17.2,253.8,17.2z"/>
	</g>
</g>
<g>
	<g>
		<path class="st0" d="M394,54.8H234.6c-5,0-9,4-9,9s4,9,9,9H394c5,0,9-4,9-9S399,54.8,394,54.8z"/>
	</g>
</g>
<g>
	<g>
		<path class="st0" d="M306.5,92.5h-71.9c-5,0-9,4-9,9s4,9,9,9h71.9c5,0,9-4,9-9S311.5,92.5,306.5,92.5z"/>
	</g>
</g>
<g>
	<g>
		<path class="st0" d="M323.3,130.2h-88.7c-5,0-9,4-9,9s4,9,9,9h88.7c5,0,9-4,9-9S328.3,130.2,323.3,130.2z"/>
	</g>
</g>
<g>
	<g>
		<path class="st0" d="M391.6,167.8h-157c-5,0-9,4-9,9s4,9,9,9h157c5,0,9-4,9-9S396.6,167.8,391.6,167.8z"/>
	</g>
</g>
<g>
	<g>
		<path class="st0" d="M571.1,81.5H466c-5,0-9,4-9,9s4,9,9,9h105.2c5,0,9-4,9-9S576.1,81.5,571.1,81.5z"/>
	</g>
</g>
<g>
	<g>
		<path class="st0" d="M531.9,110.6H466c-5,0-9,4-9,9s4,9,9,9h65.9c5,0,9-4,9-9S536.9,110.6,531.9,110.6z"/>
	</g>
</g>
<g>
	<g>
		<path class="st0" d="M475.5,139.7H466c-5,0-9,4-9,9s4,9,9,9h9.5c5,0,9-4,9-9S480.4,139.7,475.5,139.7z"/>
	</g>
</g>
<g>
	<g>
		<path class="st0" d="M545,168.8h-79c-5,0-9,4-9,9s4,9,9,9h79c5,0,9-4,9-9S549.9,168.8,545,168.8z"/>
	</g>
</g>
<g>
	<g>
		<path class="st0" d="M587.9,197.9H466c-5,0-9,4-9,9s4,9,9,9h122c5,0,9-4,9-9S592.9,197.9,587.9,197.9z"/>
	</g>
</g>
<g>
	<g>
		<path class="st0" d="M509.9,227h-44c-5,0-9,4-9,9s4,9,9,9h44c5,0,9-4,9-9C518.9,231,514.9,227,509.9,227z"/>
	</g>
</g>
<g>
	<g>
		<path class="st0" d="M543.8,256H466c-5,0-9,4-9,9s4,9,9,9h77.8c5,0,9-4,9-9C552.8,260.1,548.7,256,543.8,256z"/>
	</g>
</g>
<g>
	<g>
		<path class="st0" d="M684-159.1H190c-5,0-9,4-9,9v106.7c0,5,4,9,9,9s9-4,9-9v-97.7h476v347.7h-19.7c-5,0-9,4-9,9s4,9,9,9H684
			c5,0,9-4,9-9v-365.7C693-155.1,689-159.1,684-159.1z"/>
	</g>
</g>
<g>
	<g>
		<path class="st0" d="M398.4,206.6H199V-9.8c0-5-4-9-9-9s-9,4-9,9v225.4c0,5,4,9,9,9h208.4c5,0,9-4,9-9S403.4,206.6,398.4,206.6z"
			/>
	</g>
</g>
<g>
	<g>
		<path class="st0" d="M656.1-103.9H217.9c-5,0-9,4-9,9s4,9,9,9h438.2c5,0,9-4,9-9S661-103.9,656.1-103.9z"/>
	</g>
</g>
<g>
	<g>
		<circle class="st0" cx="220.2" cy="-121.3" r="9"/>
	</g>
</g>
<g>
	<g>
		<circle class="st0" cx="278.3" cy="-121.3" r="9"/>
	</g>
</g>
<g>
	<g>
		<circle class="st0" cx="249.3" cy="-121.3" r="9"/>
	</g>
</g>
<g>
	<g>
		<circle class="st0" cx="466.1" cy="25" r="9"/>
	</g>
</g>
<g>
	<g>
		<circle class="st0" cx="524.3" cy="25" r="9"/>
	</g>
</g>
<g>
	<g>
		<circle class="st0" cx="495.2" cy="25" r="9"/>
	</g>
</g>
<g>
	<g>
		<path class="st0" d="M623.6,275.2c5,0,9-4,9-9V-5.6c0-5-4-9-9-9H431.2c-5,0-9,4-9,9v305.7c0,5,4,9,9,9h192.4c5,0,9-4,9-9s-4-9-9-9
			H440.2V3.4h174.4v262.8C614.6,271.2,618.6,275.2,623.6,275.2z"/>
	</g>
</g>
<g>
	<g>
		<path class="st0" d="M596,43H458.8c-5,0-9,4-9,9s4,9,9,9H596c5,0,9-4,9-9S601,43,596,43z"/>
	</g>
</g>
</svg>
