<?xml version="1.0" encoding="utf-8"?>
<!-- Generator: Adobe Illustrator 19.1.0, SVG Export Plug-In . SVG Version: 6.00 Build 0)  -->
<svg version="1.1" id="Capa_1" xmlns="http://www.w3.org/2000/svg" xmlns:xlink="http://www.w3.org/1999/xlink" x="0px" y="0px"
	 viewBox="181 -181 512 512" style="enable-background:new 181 -181 512 512;" xml:space="preserve">
<style type="text/css">
	.st0{fill:#FFFFFF;}
</style>
<g>
	<g>
		<g>
			<path class="st0" d="M289.9-99c-4.8,5.4-7.1,11.7-7.1,19.1c0,7.3,2,13.3,6,18.2c4.1,4.9,11.1,8.6,20.7,11.1V-109
				C301.2-107.7,294.7-104.4,289.9-99z"/>
			<path class="st0" d="M322.2-25.3v63.8c8.3-1,15.2-4.6,20.6-10.8c5.4-6.2,8.2-13.8,8.2-22.9c0-7.8-2-14-5.8-18.7
				C341.3-18.5,333.7-22.4,322.2-25.3z"/>
			<path class="st0" d="M669.5,116.2l0.9,1.3l-19.5-66.7c-2.5-8.5-8.2-15.5-16-19.8c-7.8-4.2-16.8-5.2-25.2-2.7l-4,1.2
				c-6.7,1.9-11.3,7.1-15.4,12.4c-6-16.3-23.2-25.9-40.1-21l-9.4,2.8c-6.2,1.8-10.9,5.9-14.9,10.4c0-0.2-0.6-2.1-0.6-2.1
				C520,14.5,501.5,4.4,484,9.6l-9.4,2.7c-5.8,1.7-9.5,6.5-13.5,10.9c-4.1-13.9-8.2-27.8-11.6-39.5v-106.1c0-29.2-23.9-53-53-53
				H234.1c-29.2,0-53.1,23.8-53.1,53V63.3c0,29.2,23.9,53.1,53.1,53.1h162.5c4.2,0,8.2-0.6,12-1.5c3,10.3,5,17.2,5.3,18.3
				c-5,15.4-14.2,63.5-17.2,79.4c0,5.2,2.3,25.6,17.9,36.5l94.6,60.7c2.3,1.4,3.4,2.2,3.4,2.2c22.4,12.7,43.8,16.5,62.4,11
				l55.8-16.3c37.8-11,62.7-57.1,62.1-93.2C692.6,192.4,677.7,132.6,669.5,116.2z M524,293.5c-1.9-1.1-3.8-2.2-3.8-2.2
				c0.4,0.3-93.4-59.8-93.4-59.8c-6.3-4.4-8.6-14.4-8.9-17.9c6.3-31.5,14.4-70.5,16.9-76l1.6-3.6l-1-4L388.7-29.6
				c-1.8-6.1,1.8-12.7,7.9-14.5l9.4-2.7c6.2-1.8,12.6,1.7,14.4,7.9l47.2,161l24.3-8.5l-2.6-9.9l-16.5-56.3c-0.9-2.9-0.5-6.1,1-8.8
				c1.5-2.7,4-4.7,6.9-5.6l9.4-2.7c6.2-1.8,12.7,1.7,14.5,7.9l20.1,68.6l27-4.8l-3.5-11.4l-9.3-31.6c-1.8-6.1,1.8-12.6,7.9-14.5
				l9.4-2.8c6.1-1.8,12.6,1.8,14.4,7.9l14,47.5l27.7-3.1l-3.5-12.3l-5-17.1c-0.8-3-0.5-6.1,1-8.9c1.4-2.7,3.9-4.7,6.9-5.5l4.1-1.2
				c2.9-0.9,6-0.5,8.7,1c2.7,1.5,4.8,4,5.6,6.9l19.7,67.1l0.2,0.5c2.5,6.6,21,62.9,21.5,89.2c0.4,27.6-18.7,64-46.6,72.2L569,302.2
				C552.8,307,535.6,300.1,524,293.5z M358.7,40.5c-9.4,9.9-21.5,15.2-36.5,15.9v21.7h-12.7v0V56.7c-10.6-1.3-19.3-3.7-26.1-7.2
				c-6.7-3.4-12.4-9-17.2-16.7c-4.9-7.7-7.7-17.1-8.4-28.2l21.5-4.1c1.7,11.5,4.6,19.9,8.7,25.3c6,7.6,13.2,11.9,21.5,12.7v-67.1
				c-8.7-2.3-17.6-6-26.8-11.1c-6.8-3.8-12.1-9-15.7-15.8c-3.7-6.7-5.5-14.3-5.5-22.9c0-15.2,5.4-27.5,16.1-36.9
				c7.2-6.3,17.9-10.2,32-11.6v-10.3h12.7v10.3c12.4,1.2,22.3,4.9,29.5,11c9.4,7.8,14.9,18.5,16.8,32.1l-22,3.3
				c-1.3-8.4-3.9-14.8-7.9-19.3c-4-4.5-9.4-7.4-16.4-8.9v61.3c10.8,2.7,17.8,4.9,21.4,6.4c6.6,2.9,12,6.5,16.3,10.7
				c4.2,4.2,7.4,9.2,9.6,15c2.3,5.8,3.4,12,3.4,18.8C372.9,18.3,368.2,30.6,358.7,40.5z"/>
		</g>
	</g>
</g>
</svg>
